<svg width="413" height="363" viewBox="0 0 413 363" fill="none" xmlns="http://www.w3.org/2000/svg">
<g opacity="0.1" filter="url(#filter0_b_2530_55115)">
<path d="M25.8454 161.651C62.935 246.539 103.196 204.776 185.338 316.455C278.186 442.683 412.565 285.405 395.366 162.208C378.647 42.4541 291.058 0 203.59 0C99.9304 0 -12.4784 73.9356 25.8454 161.651Z" fill="#9FBFF8"/>
</g>
<path d="M368.729 25.8356H184V272.772H368.729V25.8356Z" fill="white"/>
<path d="M239.292 117H217V139.267H239.292V117Z" fill="#FFB752"/>
<path d="M239.292 153H217V175.267H239.292V153Z" fill="#FFB752"/>
<path d="M239.292 192H217V214.267H239.292V192Z" fill="#FFB752"/>
<path d="M225.403 168.023L222.131 164.177C221.733 163.709 221.01 163.707 220.61 164.174L220.555 164.239C220.235 164.612 220.234 165.163 220.553 165.537L224.641 170.344C225.04 170.813 225.765 170.813 226.164 170.344L236.449 158.25C236.767 157.877 236.767 157.328 236.449 156.955L236.399 156.895C236 156.426 235.275 156.426 234.875 156.895L225.403 168.023Z" fill="white"/>
<path d="M225.403 132.023L222.131 128.177C221.733 127.709 221.01 127.707 220.61 128.174L220.555 128.239C220.235 128.612 220.234 129.163 220.553 129.537L224.641 134.344C225.04 134.813 225.765 134.813 226.164 134.344L236.449 122.25C236.767 121.877 236.767 121.328 236.449 120.955L236.399 120.895C236 120.426 235.275 120.426 234.875 120.895L225.403 132.023Z" fill="white"/>
<path d="M225.403 207.023L222.131 203.177C221.733 202.709 221.01 202.707 220.61 203.174L220.555 203.239C220.235 203.612 220.234 204.163 220.553 204.537L224.641 209.344C225.04 209.813 225.765 209.813 226.164 209.344L236.449 197.25C236.767 196.877 236.767 196.328 236.449 195.955L236.399 195.895C236 195.426 235.275 195.426 234.875 195.895L225.403 207.023Z" fill="white"/>
<path d="M225.403 268.318L222.131 264.472C221.733 264.003 221.01 264.002 220.61 264.469L220.555 264.533C220.235 264.907 220.234 265.457 220.553 265.832L224.641 270.638C225.04 271.108 225.765 271.108 226.164 270.638L236.449 258.545C236.767 258.171 236.767 257.623 236.449 257.249L236.399 257.19C236 256.72 235.275 256.72 234.875 257.19L225.403 268.318Z" fill="white"/>
<path opacity="0.2" d="M324.088 130.923H251.626V137.02H324.088V130.923Z" fill="#3369FA"/>
<path opacity="0.2" d="M339.793 118.368H251.626V124.465H339.793V118.368Z" fill="#3369FA"/>
<path opacity="0.2" d="M283.281 168.894H251.626V174.99H283.281V168.894Z" fill="#3369FA"/>
<path opacity="0.2" d="M339.793 156.343H251.626V162.44H339.793V156.343Z" fill="#3369FA"/>
<path opacity="0.2" d="M320.272 206.868H251.626V212.965H320.272V206.868Z" fill="#3369FA"/>
<path opacity="0.2" d="M339.793 194.314H251.626V200.411H339.793V194.314Z" fill="#3369FA"/>
<path opacity="0.2" d="M317.222 98.527H234.648V104.624H317.222V98.527Z" fill="#3369FA"/>
<path d="M224.556 52.46H221.756C221.369 50.8067 220.349 49.98 218.696 49.98C217.456 49.98 216.502 50.4733 215.836 51.46C215.262 52.3267 214.976 53.48 214.976 54.92C214.976 56.5467 215.336 57.7867 216.056 58.64C216.682 59.3733 217.529 59.74 218.596 59.74C219.516 59.74 220.249 59.5 220.796 59.02C221.342 58.54 221.662 57.8533 221.756 56.96H224.616C224.522 58.6933 223.856 60.0333 222.616 60.98C221.549 61.8067 220.182 62.22 218.516 62.22C216.382 62.22 214.729 61.4733 213.556 59.98C212.542 58.6867 212.036 56.98 212.036 54.86C212.036 52.4333 212.702 50.5533 214.036 49.22C215.196 48.0467 216.709 47.46 218.576 47.46C220.789 47.46 222.462 48.2 223.596 49.68C224.156 50.4133 224.476 51.34 224.556 52.46ZM235.655 61.3V62H232.655C232.455 61.7467 232.349 61.3867 232.335 60.92C231.602 61.7867 230.535 62.22 229.135 62.22C228.109 62.22 227.282 61.9067 226.655 61.28C226.149 60.7733 225.895 60.0733 225.895 59.18C225.895 57.8467 226.429 56.9 227.495 56.34C227.949 56.1 228.849 55.86 230.195 55.62L232.355 55.22L232.335 54.46C232.322 53.7533 231.789 53.4 230.735 53.4C230.055 53.4 229.575 53.5067 229.295 53.72C229.029 53.92 228.862 54.2933 228.795 54.84H226.155C226.315 52.4 227.822 51.18 230.675 51.18C232.249 51.18 233.382 51.46 234.075 52.02C234.702 52.5533 235.015 53.36 235.015 54.44V60.36C235.015 60.84 235.229 61.1533 235.655 61.3ZM232.355 56.88L230.335 57.34C229.762 57.4733 229.335 57.6667 229.055 57.92C228.789 58.1733 228.655 58.4867 228.655 58.86C228.655 59.62 229.149 60 230.135 60C231.562 60 232.295 59.22 232.335 57.66L232.355 56.88ZM237.513 51.4H240.273V53.42C240.62 51.9267 241.607 51.18 243.233 51.18C243.487 51.18 243.667 51.18 243.773 51.18L243.793 53.9C243.46 53.8333 243.113 53.8 242.753 53.8C241.847 53.8 241.22 53.9667 240.873 54.3C240.473 54.6733 240.273 55.3467 240.273 56.32V62H237.513V51.4ZM252.022 47.68V62H249.082V47.68H252.022ZM254.701 51.4H257.461V52.9C258.208 51.7533 259.261 51.18 260.621 51.18C261.834 51.18 262.754 51.54 263.381 52.26C263.914 52.9 264.181 53.7667 264.181 54.86V62H261.441V55.42C261.441 54.1533 260.848 53.52 259.661 53.52C258.994 53.52 258.461 53.7133 258.061 54.1C257.661 54.4733 257.461 54.9733 257.461 55.6V62H254.701V51.4ZM275.533 54.52H272.733C272.719 54.0933 272.566 53.7933 272.273 53.62C271.979 53.4333 271.473 53.34 270.753 53.34C269.699 53.34 269.173 53.6467 269.173 54.26C269.173 54.62 269.493 54.8867 270.133 55.06L273.613 56.04C274.999 56.4267 275.693 57.3067 275.693 58.68C275.693 59.76 275.273 60.6333 274.433 61.3C273.646 61.9133 272.513 62.22 271.033 62.22C269.219 62.22 267.919 61.9533 267.133 61.42C266.359 60.9133 265.946 60.0933 265.893 58.96H268.633C268.713 59.4 268.899 59.6933 269.193 59.84C269.499 59.9867 270.059 60.06 270.873 60.06C272.246 60.06 272.933 59.7333 272.933 59.08C272.933 58.6933 272.626 58.4067 272.013 58.22L268.733 57.22C267.893 56.9667 267.319 56.6733 267.013 56.34C266.613 55.9267 266.413 55.3667 266.413 54.66C266.413 53.5 266.853 52.6067 267.733 51.98C268.506 51.4467 269.519 51.18 270.773 51.18C272.293 51.18 273.493 51.52 274.373 52.2C275.133 52.8 275.519 53.5733 275.533 54.52ZM287.011 62H284.271V60.5C283.524 61.6467 282.464 62.22 281.091 62.22C279.877 62.22 278.957 61.86 278.331 61.14C277.797 60.5133 277.531 59.6533 277.531 58.56V51.4H280.291V57.98C280.291 59.2467 280.877 59.88 282.051 59.88C282.717 59.88 283.251 59.6933 283.651 59.32C284.064 58.9467 284.271 58.44 284.271 57.8V51.4H287.011V62ZM289.623 51.4H292.383V53.42C292.729 51.9267 293.716 51.18 295.343 51.18C295.596 51.18 295.776 51.18 295.883 51.18L295.903 53.9C295.569 53.8333 295.223 53.8 294.863 53.8C293.956 53.8 293.329 53.9667 292.983 54.3C292.583 54.6733 292.383 55.3467 292.383 56.32V62H289.623V51.4ZM306.32 61.3V62H303.32C303.12 61.7467 303.013 61.3867 303 60.92C302.266 61.7867 301.2 62.22 299.8 62.22C298.773 62.22 297.946 61.9067 297.32 61.28C296.813 60.7733 296.56 60.0733 296.56 59.18C296.56 57.8467 297.093 56.9 298.16 56.34C298.613 56.1 299.513 55.86 300.86 55.62L303.02 55.22L303 54.46C302.986 53.7533 302.453 53.4 301.4 53.4C300.72 53.4 300.24 53.5067 299.96 53.72C299.693 53.92 299.526 54.2933 299.46 54.84H296.82C296.98 52.4 298.486 51.18 301.34 51.18C302.913 51.18 304.046 51.46 304.74 52.02C305.366 52.5533 305.68 53.36 305.68 54.44V60.36C305.68 60.84 305.893 61.1533 306.32 61.3ZM303.02 56.88L301 57.34C300.426 57.4733 300 57.6667 299.72 57.92C299.453 58.1733 299.32 58.4867 299.32 58.86C299.32 59.62 299.813 60 300.8 60C302.226 60 302.96 59.22 303 57.66L303.02 56.88ZM308.178 51.4H310.938V52.9C311.684 51.7533 312.738 51.18 314.098 51.18C315.311 51.18 316.231 51.54 316.858 52.26C317.391 52.9 317.658 53.7667 317.658 54.86V62H314.918V55.42C314.918 54.1533 314.324 53.52 313.138 53.52C312.471 53.52 311.938 53.7133 311.538 54.1C311.138 54.4733 310.938 54.9733 310.938 55.6V62H308.178V51.4ZM329.149 55.28H326.529C326.369 54.5867 326.136 54.1 325.829 53.82C325.536 53.54 325.116 53.4 324.569 53.4C323.743 53.4 323.169 53.6933 322.849 54.28C322.503 54.96 322.329 55.7933 322.329 56.78C322.329 57.78 322.523 58.5733 322.909 59.16C323.309 59.7333 323.856 60.02 324.549 60.02C325.096 60.02 325.516 59.88 325.809 59.6C326.116 59.3067 326.356 58.8267 326.529 58.16H329.149C329.016 59.4933 328.483 60.5267 327.549 61.26C326.736 61.9133 325.729 62.24 324.529 62.24C322.849 62.24 321.576 61.7 320.709 60.62C319.949 59.6867 319.569 58.4267 319.569 56.84C319.569 54.92 320.069 53.4667 321.069 52.48C321.936 51.6133 323.109 51.18 324.589 51.18C326.003 51.18 327.123 51.5867 327.949 52.4C328.656 53.12 329.056 54.08 329.149 55.28ZM340.288 57.42H333.168C333.208 58.2733 333.341 58.88 333.568 59.24C333.955 59.8267 334.561 60.12 335.388 60.12C336.415 60.12 337.101 59.6933 337.448 58.84H340.168C339.861 59.88 339.261 60.7067 338.368 61.32C337.488 61.92 336.455 62.22 335.268 62.22C333.655 62.22 332.415 61.68 331.548 60.6C330.788 59.6533 330.408 58.4067 330.408 56.86C330.408 54.98 330.901 53.5267 331.888 52.5C332.755 51.62 333.895 51.18 335.308 51.18C336.388 51.18 337.335 51.4467 338.148 51.98C338.961 52.5133 339.541 53.26 339.888 54.22C340.168 54.9667 340.308 55.8667 340.308 56.92C340.308 57.0533 340.301 57.22 340.288 57.42ZM337.428 55.6C337.295 54.0533 336.581 53.28 335.288 53.28C334.075 53.28 333.381 54.0533 333.208 55.6H337.428Z" fill="#FFB752"/>
<path d="M365.417 123.175C380.909 123.175 393.467 110.631 393.467 95.1566C393.467 79.6823 380.909 67.1378 365.417 67.1378C349.925 67.1378 337.367 79.6823 337.367 95.1566C337.367 110.631 349.925 123.175 365.417 123.175Z" fill="#9FBFF8"/>
<path d="M359.506 123.175C374.998 123.175 387.556 110.631 387.556 95.1566C387.556 79.6823 374.998 67.1378 359.506 67.1378C344.015 67.1378 331.456 79.6823 331.456 95.1566C331.456 110.631 344.015 123.175 359.506 123.175Z" fill="#FFB752"/>
<path d="M359.506 117.153C347.365 117.153 337.485 107.287 337.485 95.1566C337.485 83.0257 347.362 73.16 359.506 73.16C371.65 73.16 381.527 83.0257 381.527 95.1566C381.527 107.287 371.65 117.153 359.506 117.153ZM359.506 74.2828C347.983 74.2828 338.609 83.646 338.609 95.1566C338.609 106.667 347.983 116.03 359.506 116.03C371.029 116.03 380.403 106.667 380.403 95.1566C380.403 83.646 371.029 74.2828 359.506 74.2828Z" fill="white"/>
<path d="M369.088 100.68C369.336 91.2386 353.882 94.5756 354.841 88.7536C355.588 85.0633 361.558 85.8445 364.187 87.513C366.317 89.0755 368.876 85.9858 366.463 84.0347C365.158 83.0336 363.464 82.3898 361.664 82.111V80.3483C361.664 77.3333 356.975 77.4392 356.975 80.3483V82.2052C353.611 82.8844 350.746 84.9219 350.333 88.4002C349.233 98.4779 364.01 95.3215 364.474 100.574C363.939 105.615 356.445 104.123 353.532 102.137C352.326 101.144 351.292 101.462 350.368 102.384C349.728 103.342 349.692 104.905 350.868 105.862C352.349 107.087 354.582 107.916 356.975 108.234V109.961C356.975 112.87 361.664 112.976 361.664 109.961V108.179C365.602 107.519 368.966 105.211 369.092 100.68H369.088Z" fill="white"/>
<path d="M359.506 123.737C343.73 123.737 330.894 110.915 330.894 95.1565C330.894 79.3981 343.73 66.5763 359.506 66.5763C375.282 66.5763 388.119 79.3981 388.119 95.1565C388.119 110.915 375.282 123.737 359.506 123.737ZM359.506 67.6991C344.347 67.6991 332.018 80.0184 332.018 95.1565C332.018 110.295 344.351 122.614 359.506 122.614C374.661 122.614 386.994 110.295 386.994 95.1565C386.994 80.0184 374.661 67.6991 359.506 67.6991Z" fill="white"/>
<path d="M97.4857 333.889C97.4857 335.409 139.327 336.638 190.943 336.638C242.559 336.638 284.4 335.405 284.4 333.889C284.4 332.374 242.559 331.141 190.943 331.141C139.327 331.141 97.4857 332.374 97.4857 333.889Z" fill="#E1E9FF"/>
<path d="M310.261 337.387C253.684 337.387 207.819 335.821 207.819 333.89C207.819 331.958 253.684 330.392 310.261 330.392C366.838 330.392 412.703 331.958 412.703 333.89C412.703 335.821 366.838 337.387 310.261 337.387Z" fill="#E1E9FF"/>
<path d="M362.101 284.145H375.845C387.585 284.145 397.1 295.279 397.1 309.015C397.1 322.752 387.585 333.886 375.845 333.886H362.101C350.361 333.886 340.846 322.752 340.846 309.015C340.846 295.279 350.361 284.145 362.101 284.145Z" fill="#2D374D"/>
<path d="M362.101 333.89C350.362 333.89 340.846 322.755 340.846 309.019C340.846 295.284 350.362 284.149 362.101 284.149C373.839 284.149 383.355 295.284 383.355 309.019C383.355 322.755 373.839 333.89 362.101 333.89Z" fill="#2D374D"/>
<path d="M362.101 326.43C353.885 326.43 347.225 318.635 347.225 309.019C347.225 299.403 353.885 291.608 362.101 291.608C370.316 291.608 376.977 299.403 376.977 309.019C376.977 318.635 370.316 326.43 362.101 326.43Z" fill="#3B4F66"/>
<path d="M311.011 284.145H324.755C336.495 284.145 346.01 295.279 346.01 309.015C346.01 322.752 336.495 333.886 324.755 333.886H311.011C299.272 333.886 289.757 322.752 289.757 309.015C289.757 295.279 299.272 284.145 311.011 284.145Z" fill="#2D374D"/>
<path d="M175.701 224.3C202.726 221.63 244.115 221.233 266.769 223.397C280.407 224.7 291.38 226.867 300.471 230.499C310.677 234.574 332.989 248.098 343.507 256.217C371.183 256.217 394.549 267.374 401.619 276.384C401.619 276.384 403.675 282.822 404.127 285.394C404.127 288.008 402.606 297.387 402.067 300.532C402.492 301.03 403.317 302.055 403.702 302.573C403.518 304.544 403.16 311.614 402.963 313.114C399.403 317.209 392.269 318.08 385.926 318.08H334.837V316.212C314.061 316.121 205.685 316.345 175.701 316.212V224.304V224.3Z" fill="#FFB752"/>
<path d="M190.581 284.145H204.325C216.065 284.145 225.58 295.279 225.58 309.015C225.58 322.752 216.065 333.886 204.325 333.886H190.581C178.842 333.886 169.327 322.752 169.327 309.015C169.327 295.279 178.842 284.145 190.581 284.145Z" fill="#2D374D"/>
<path d="M139.492 284.145H153.236C164.976 284.145 174.491 295.279 174.491 309.015C174.491 322.752 164.976 333.886 153.236 333.886H139.492C127.752 333.886 118.237 322.752 118.237 309.015C118.237 295.279 127.752 284.145 139.492 284.145Z" fill="#2D374D"/>
<path d="M190.581 333.89C178.843 333.89 169.326 322.755 169.326 309.019C169.326 295.284 178.843 284.149 190.581 284.149C202.32 284.149 211.836 295.284 211.836 309.019C211.836 322.755 202.32 333.89 190.581 333.89Z" fill="#2D374D"/>
<path d="M190.582 326.43C182.366 326.43 175.706 318.635 175.706 309.019C175.706 299.403 182.366 291.608 190.582 291.608C198.797 291.608 205.458 299.403 205.458 309.019C205.458 318.635 198.797 326.43 190.582 326.43Z" fill="#3B4F66"/>
<path d="M114.987 313.287C112.212 307.916 112.503 297.47 114.712 290.179C117.219 281.904 124.616 270.915 138.494 270.915C152.371 270.915 162.791 283.117 165.322 296.398C166.799 304.151 165.436 313.711 163.883 316.172L114.987 313.291V313.287Z" fill="#2D374D"/>
<path d="M285.78 316.824C283.885 312.164 284.318 300.229 286.526 292.939C289.034 284.663 295.165 272.827 311.012 272.827C326.858 272.827 335.061 284.322 336.884 297.76C337.659 303.488 336.393 315.623 334.841 318.084L285.784 316.828L285.78 316.824Z" fill="#2D374D"/>
<path d="M107.457 260.374C107.315 262.93 107.162 265.937 107.083 268.085C106.741 268.363 106.242 268.787 105.896 269.07V281.817C106.034 282.178 106.219 282.567 106.372 282.901C105.114 288.491 104.58 291.271 103.794 295.346C103.589 295.577 103.358 295.856 103.204 296.037C103.165 297.364 103.098 300.516 104.112 303.417C105.272 306.739 106.698 308.285 108.734 310.468C110.632 311.717 112.413 312.635 114.991 313.287C113.313 302.679 115.152 291.121 123.158 283.195C131.4 275.037 144.912 276.49 152.996 282.496C162.228 289.351 165.231 300.901 163.883 316.168C172.148 316.219 261.915 316.718 285.783 316.82C285.842 313.97 285.634 300.438 290.111 291.573C294.406 283.066 303.261 279.175 309.298 278.41C316.144 277.538 326.874 281.904 331.916 290.701C336.759 299.142 336.083 311.874 334.841 318.08C341.109 318.08 347.527 317.35 351.878 313.114C352.075 311.614 352.432 304.544 352.617 302.573C352.236 302.051 351.41 301.026 350.982 300.532C351.521 297.387 353.042 287.47 353.042 285.394C352.354 284.624 351.355 283.717 350.534 282.909V276.384C343.464 267.374 320.098 256.217 292.422 256.217C281.904 248.098 257.478 234.114 250.451 230.499C244.099 227.232 238.939 226.329 232.187 225.049C227.054 224.076 209.407 222.941 190.114 223.581C167.361 224.335 142.774 227.778 130.551 230.287V232.018C132.402 233.973 135.09 236.729 137.177 238.668C128.495 244.848 117.227 252.652 107.457 260.37V260.374Z" fill="#FFB752"/>
<path d="M169.362 230.762C160.664 238.201 150.115 249.339 145.537 254.454C162.724 254.595 255.737 259.518 279.534 261.234C279.055 256.48 259.761 242.386 244.127 234.793C237.115 231.386 232.674 231.17 226.433 230.499C215.361 229.305 186.089 228.964 169.366 230.762H169.362Z" fill="#2D374D"/>
<path d="M131.989 240.725C125.827 245.519 115.749 253.378 113.702 255.569C113.548 256.075 113.466 256.374 113.336 256.904C118.937 253.111 138.105 241.451 145.132 237.471C139.912 235.951 134.304 233.753 130.555 230.294C130.555 231.107 130.555 232.273 130.555 232.83C131.152 233.572 131.859 234.444 132.587 235.323C133.946 236.972 133.679 239.414 131.989 240.725V240.725Z" fill="#2D374D"/>
<path d="M279.915 316.84C282.557 291.161 282.576 272.415 279.982 261.132L279.078 261.34C281.653 272.525 281.621 291.164 278.992 316.745L279.911 316.84H279.915Z" fill="#3B4F66"/>
<path d="M311.011 333.89C299.273 333.89 289.757 322.755 289.757 309.019C289.757 295.284 299.273 284.149 311.011 284.149C322.75 284.149 332.266 295.284 332.266 309.019C332.266 322.755 322.75 333.89 311.011 333.89Z" fill="#3B4F66"/>
<path d="M311.012 326.43C302.796 326.43 296.136 318.635 296.136 309.019C296.136 299.403 302.796 291.608 311.012 291.608C319.227 291.608 325.887 299.403 325.887 309.019C325.887 318.635 319.227 326.43 311.012 326.43Z" fill="#9EB6B7"/>
<path d="M139.492 333.89C127.754 333.89 118.238 322.755 118.238 309.019C118.238 295.284 127.754 284.149 139.492 284.149C151.231 284.149 160.747 295.284 160.747 309.019C160.747 322.755 151.231 333.89 139.492 333.89Z" fill="#3B4F66"/>
<path d="M139.492 326.43C131.276 326.43 124.616 318.635 124.616 309.019C124.616 299.403 131.276 291.608 139.492 291.608C147.708 291.608 154.368 299.403 154.368 309.019C154.368 318.635 147.708 326.43 139.492 326.43Z" fill="#9EB6B7"/>
<path d="M167.192 302.856C174.459 301.054 188.321 297.25 195.286 295.35C222.499 296.41 256.987 299.75 264.537 300.273C266.667 301.234 276.646 306.385 280.269 308.238C253.084 306.821 194.339 303.963 167.192 302.856V302.856Z" fill="#FFB752"/>
<path d="M145.344 237.879C147.285 236.878 149.982 235.425 151.636 234.432C152.803 233.733 153.751 232.363 154.049 230.946L154.073 230.828C154.285 229.796 154.851 227.059 157.245 226.643L157.083 225.733C154.073 226.259 153.389 229.56 153.165 230.644L153.141 230.758C152.898 231.916 152.1 233.074 151.157 233.639C149.53 234.617 146.778 236.097 144.915 237.055L145.34 237.875L145.344 237.879Z" fill="#3B4F66"/>
<path d="M286.318 260.146C286.762 260.472 288.314 261.681 288.81 262.082C317.858 262.082 336.88 267.731 350.53 276.384C343.46 267.374 320.094 256.217 292.418 256.217C291.187 257.551 288.024 259.491 286.314 260.146H286.318Z" fill="#FFB752"/>
<path d="M311.743 272.112C328.053 272.112 339.455 286.139 341.105 304.269L339.6 304.509C338.032 287.282 327.2 273.95 311.703 273.95C301.013 273.95 291.514 280.804 286.318 291.035L285.025 290.093C290.496 279.328 300.49 272.112 311.743 272.112V272.112Z" fill="#FFB752"/>
<path d="M243.211 230.44C258.59 224.637 289.918 228.025 297.782 230.44C311.99 236.752 335.493 252.279 340.26 256.221H315.61C305.438 256.221 289.285 258.16 286.318 260.15C280.705 255.443 261.526 239.72 243.211 230.444V230.44Z" fill="#2D374D"/>
<path d="M368.566 293.669H388.606V302.573H368.566V293.669Z" fill="white"/>
<path d="M332.097 276.384C333.646 278.516 336.228 280.785 337.757 281.695C339.801 282.912 378.584 289.724 378.584 289.724L404.127 285.46V285.394C403.675 282.822 401.623 276.384 401.623 276.384H332.097Z" fill="#2D374D"/>
<path d="M335.529 313.114C335.595 312.333 335.65 311.516 335.686 310.676H357.29L361.393 302.577H394.105L397.905 310.676H403.164C403.085 311.783 403.015 312.686 402.96 313.114H398.019L394.152 305.015H363.182L359.083 313.106V313.114H335.521H335.529Z" fill="#3B4F66"/>
<path d="M228.681 272.748C229.062 272.748 229.345 272.646 229.549 272.438C229.903 272.077 229.883 271.555 229.86 270.895C229.86 270.809 229.852 270.719 229.852 270.625L228.925 270.648C228.925 270.746 228.932 270.84 228.932 270.927C228.944 271.237 228.96 271.708 228.885 271.79C228.885 271.79 228.838 271.822 228.661 271.822C225.71 271.775 221.076 271.437 218.875 271.225C218.274 271.166 218.219 271.049 218.219 269.816V269.773H217.291V269.816C217.291 270.891 217.291 272.002 218.784 272.148C221.001 272.36 225.67 272.701 228.645 272.748C228.657 272.748 228.669 272.748 228.681 272.748V272.748Z" fill="#3B4F66"/>
<path d="M138.478 272.748C128.794 272.748 120.195 278.264 114.814 286.783L113.564 285.696C119.232 276.721 128.283 270.911 138.482 270.911C152.234 270.911 163.903 281.476 167.994 296.119L166.461 296.484C162.519 282.685 151.483 272.748 138.482 272.748H138.478Z" fill="#FFB752"/>
<path d="M165.754 268.367C166.21 268.367 166.465 268.163 166.603 267.994C167.004 267.488 166.811 266.695 166.697 266.224L165.797 266.44C165.962 267.127 165.931 267.354 165.876 267.425C165.872 267.433 165.832 267.445 165.758 267.445C163.014 267.445 158.652 267.197 156.176 266.97C155.158 266.876 154.698 265.604 154.698 265.231H153.771C153.771 266.083 154.568 267.751 156.089 267.892C158.581 268.124 162.987 268.371 165.754 268.371V268.367Z" fill="#3B4F66"/>
<path d="M103.216 298.455C106.439 299.644 110.707 300.944 114.74 301.077C114.747 300.995 114.763 300.912 114.775 300.83C114.783 300.74 114.798 300.649 114.81 300.555C114.842 300.339 114.873 300.123 114.909 299.911C114.948 299.652 114.991 299.393 115.042 299.138C115.081 298.898 115.129 298.655 115.18 298.416C111.556 298.349 106.989 297.25 103.204 296.048C103.189 296.594 103.169 297.446 103.22 298.459L103.216 298.455Z" fill="#3B4F66"/>
<path d="M163.777 302.718C163.875 303.504 163.958 304.3 164.021 305.113C188.341 306.216 258.386 309.53 285.937 310.841C285.98 310.115 286.027 309.345 286.094 308.544C261.608 307.233 190.99 303.778 163.777 302.718V302.718Z" fill="#3B4F66"/>
<path d="M258.531 254.014C257.95 256.009 257.085 260.488 260.363 260.987C263.774 261.505 272.818 261.238 272.818 257.226C272.818 253.967 267.331 250.885 263.782 250.685C260.139 250.485 259.117 251.989 258.531 254.014Z" fill="#FFB752"/>
<path d="M107.08 268.085L114.928 268.681L112.81 260.775L107.441 260.594C107.441 260.657 107.433 260.72 107.429 260.787C107.3 263.248 107.158 266.047 107.08 268.081V268.085Z" fill="#A64343"/>
<path d="M107.359 262.145C154.726 263.012 252.946 272.242 279.491 273.502V273.106C255.12 271.579 168.835 262.282 107.457 260.37C107.457 260.445 107.449 260.519 107.445 260.594C107.445 260.657 107.437 260.72 107.433 260.786C107.41 261.23 107.386 261.685 107.363 262.145H107.359Z" fill="#BF8135"/>
<path d="M215.326 316.514C215.404 315.917 216.375 306.837 216.375 304.532C216.375 303.826 216.147 302.62 215.884 301.227C215.558 299.499 215.188 297.544 215.243 296.402C216.245 276.089 213.019 250.238 211.093 234.793C210.853 232.858 210.633 231.107 210.448 229.576L209.529 229.686C209.713 231.221 209.929 232.972 210.173 234.907C212.099 250.324 215.318 276.125 214.319 296.355C214.257 297.611 214.638 299.621 214.976 301.399C215.22 302.691 215.451 303.912 215.451 304.532C215.451 306.746 214.488 315.815 214.41 316.392L215.33 316.514H215.326Z" fill="#3B4F66"/>
<path d="M151.959 282.241L152.812 281.88C150.072 275.465 146.72 267.456 145.081 262.396C143.662 258.011 144.291 256.287 145.855 254.792L145.214 254.124C143.477 255.781 142.64 257.87 144.2 262.683C145.851 267.778 149.215 275.815 151.963 282.245L151.959 282.241Z" fill="#3B4F66"/>
<path d="M170.006 246.241C167.181 246.241 164.017 248.027 164.017 250.151V250.968H158.306C158.306 250.968 173.017 238.091 177.788 234.833H186.796C188.314 234.833 188.946 236.768 187.72 237.663L175.969 246.245H170.006V246.241Z" fill="#4C6E8A"/>
<path d="M230.225 248.93L229.534 244.211C229.184 241.813 226.885 239.799 224.397 239.72H217.751C218.71 238.091 220.011 236.124 221.076 234.554C231.232 234.554 236.887 236.14 242.716 238.464C247.475 240.364 253.068 244.278 255.434 246.374C256.259 248.487 258.291 254.14 258.291 254.14L255.717 253.932C255.006 252.628 254.035 252.193 251.85 252.193H242.692C241.529 252.193 240.609 252.554 240.185 253.088L215.086 251.627C215.086 251.627 227.345 251.639 227.722 251.639C228.94 251.639 230.449 250.481 230.222 248.934L230.225 248.93Z" fill="#6C8CA6"/>
<path d="M267.402 243.595L283.744 255.365C283.744 255.365 293.192 256.091 296.694 256.099C304.161 254.788 316.695 254.858 322.917 254.858C322.095 253.198 319.996 249.068 319.996 249.068C319.996 249.068 306.979 239.434 289.914 235.669C272.189 231.759 259.754 233.474 259.754 233.474L267.398 243.599L267.402 243.595Z" fill="#6C8CA6"/>
<path d="M252.852 251.631H243.05C241.674 251.631 240.491 250.701 240.224 249.409L238.781 242.484C238.483 241.051 239.626 239.716 241.147 239.716H251.051C252.242 239.716 253.268 240.521 253.504 241.644L255.049 249.06C255.324 250.391 254.266 251.631 252.852 251.631Z" fill="#2D374D"/>
<path d="M311.012 293.347C311.727 293.347 312.426 293.414 313.11 293.54C306.712 294.717 301.819 301.199 301.819 309.015C301.819 316.832 306.712 323.313 313.11 324.491C312.426 324.617 311.727 324.683 311.012 324.683C303.615 324.683 297.621 317.668 297.621 309.015C297.621 300.363 303.615 293.347 311.012 293.347Z" fill="white"/>
<path d="M139.492 293.347C140.207 293.347 140.907 293.414 141.591 293.54C135.192 294.717 130.299 301.199 130.299 309.015C130.299 316.832 135.192 323.313 141.591 324.491C140.907 324.617 140.207 324.683 139.492 324.683C132.095 324.683 126.102 317.668 126.102 309.015C126.102 300.363 132.095 293.347 139.492 293.347Z" fill="white"/>
<path d="M350.534 276.384H359.063V281.413H350.534C350.534 281.413 342.053 281.617 339.545 280.82C337.855 280.282 335.764 278.516 333.929 276.384H350.534Z" fill="white"/>
<path d="M393.094 276.384V281.413H403.136C402.425 278.9 401.623 276.384 401.623 276.384H393.094Z" fill="white"/>
<path d="M325.923 276.847H401.623V275.92H326.178C318.518 271.37 310.289 270.499 302.349 273.388C298.675 269.926 291.443 263.373 286.597 259.773L286.043 260.515C290.944 264.158 298.329 270.868 301.921 274.256L302.129 274.456L302.401 274.354C310.186 271.433 318.283 272.273 325.813 276.78L325.923 276.847V276.847Z" fill="#3B4F66"/>
<path d="M131.934 167.088C136.886 167.088 140.911 163.064 140.911 158.121H139.225C139.225 162.138 135.955 165.408 131.93 165.408C127.905 165.408 124.636 162.138 124.636 158.121V25.3571H122.949V158.118C122.949 163.064 126.978 167.084 131.926 167.084L131.934 167.088Z" fill="#2D374D"/>
<path d="M192.519 88.807C181.313 57.459 154.765 35.4193 123.798 35.4193C92.832 35.4193 66.2832 57.459 55.0781 88.807H192.519Z" fill="#3369FA"/>
<path d="M192.519 88.8065C183.039 88.1077 171.142 89.1128 155.067 94.5736C139.095 90.9893 106.973 90.6635 90.4267 94.4676C74.973 89.5485 61.1818 89.2776 55.0782 88.8065C55.0782 86.4078 73.5935 80.4994 89.4834 83.1926C113.32 74.9561 135.153 75.3291 158.117 83.1926C175.406 79.3295 192.522 86.4039 192.522 88.8065H192.519Z" fill="#003FE5"/>
<path d="M157.551 83.3224L158.683 83.0711C155.515 68.8595 150.677 56.8543 144.691 48.3509C138.47 39.5138 131.246 34.842 123.798 34.842C116.351 34.842 109.127 39.5138 102.905 48.3509C96.9194 56.8543 92.0813 68.8595 88.9135 83.0711L90.0454 83.3224C93.1778 69.26 97.9531 57.396 103.852 49.0144C109.846 40.4992 116.744 35.9962 123.794 35.9962C130.845 35.9962 137.743 40.4953 143.736 49.0144C149.636 57.396 154.411 69.256 157.543 83.3224H157.551Z" fill="white"/>
<path d="M45.9995 335.876C20.5947 335.876 0 334.987 0 333.89C0 332.793 20.5947 331.903 45.9995 331.903C71.4043 331.903 91.999 332.793 91.999 333.89C91.999 334.987 71.4043 335.876 45.9995 335.876Z" fill="#E1E9FF"/>
<path d="M9.55835 239.206C9.50726 236.811 9.85705 235.363 10.537 233.639C11.1108 232.187 12.4628 229.113 12.8676 227.688C13.5554 225.253 17.9494 225.548 17.8472 228.127C17.7607 230.275 17.6153 232.206 17.7057 233.459C17.804 234.797 18.6804 236.497 18.9556 237.769C19.2543 239.139 18.987 242.225 18.9909 242.822C18.9909 243.469 18.4171 243.316 18.028 242.822C17.5603 242.225 17.5407 240.717 17.4346 240.348C17.3284 239.979 17.2105 239.952 17.2026 240.356C17.1751 241.487 17.0848 242.869 16.8843 244.223C16.6171 246.009 15.7878 247.831 14.031 247.226C9.97103 245.825 9.61337 242.099 9.55442 239.206H9.55835Z" fill="#EB987A"/>
<path d="M127.737 131.708C126.935 133.966 126.094 135.198 124.852 136.569C123.802 137.727 121.448 140.122 120.564 141.315C119.059 143.349 115.054 141.523 116.06 139.144C116.897 137.165 117.718 135.41 118.076 134.209C118.457 132.921 118.237 131.021 118.43 129.738C118.634 128.348 119.974 125.561 120.187 124.999C120.414 124.395 120.898 124.74 121.087 125.337C121.311 126.059 120.8 127.476 120.764 127.861C120.733 128.246 120.831 128.313 120.984 127.936C121.413 126.887 121.983 125.627 122.651 124.43C123.531 122.852 124.954 121.442 126.381 122.628C129.686 125.372 128.699 128.984 127.733 131.708H127.737Z" fill="#EB987A"/>
<path d="M63.5241 171.517C68.315 171.517 68.8103 165.267 67.4583 165.267C66.6054 165.267 65.8979 164.646 65.8979 163.971V159.747C65.8979 155.688 55.6636 152.68 55.6636 155.287V163.445C55.6636 164.269 55.4828 164.854 54.3195 164.854C53.4705 164.854 54.8265 167.438 56.0802 168.58C58.3283 170.633 59.9869 171.513 63.5201 171.513L63.5241 171.517Z" fill="#EB987A"/>
<path d="M56.3124 156.995C57.0788 160.406 60.0422 162.66 63.7956 162.66C67.0223 162.66 68.4647 160.509 68.3428 155.075C68.2642 151.581 69.3451 150.274 67.9027 147.726C66.0594 144.46 59.9989 144.369 57.4757 147.318C54.9014 150.321 55.5971 153.827 56.3124 156.999V156.995Z" fill="#EB987A"/>
<path d="M59.3346 147.957C60.8753 148.845 64.6797 149.806 67.3051 149.276C70.0524 148.719 70.8659 145.932 70.7913 144.518C70.7048 142.862 64.6876 141.429 60.3604 142.477C59.0006 142.807 57.3381 143.808 57.2123 145.131C57.1101 146.199 58.2106 147.31 59.3385 147.957H59.3346Z" fill="#2D374D"/>
<path d="M55.6559 156.225C57.0551 155.487 58.3442 154.231 58.5721 153.084C58.8001 151.946 59.1931 148.742 59.3936 146.626C59.4839 145.684 57.9904 145.017 56.5598 145.017C53.3999 145.017 54.1899 154.89 55.6559 156.225Z" fill="#2D374D"/>
<path d="M57.5426 153.842C57.6802 155.365 56.9413 156.677 55.8958 156.771C54.8504 156.865 53.8875 155.707 53.7499 154.184C53.6124 152.66 54.3513 151.349 55.3967 151.255C56.4422 151.161 57.405 152.319 57.5426 153.842Z" fill="#EB987A"/>
<path d="M65.1947 158.377C65.1082 158.903 64.5148 159.24 63.8702 159.13C63.2256 159.024 62.7737 158.51 62.8641 157.984C62.9505 157.458 63.4732 157.584 64.1178 157.694C64.7624 157.803 65.2851 157.851 65.1986 158.377H65.1947Z" fill="white"/>
<path d="M69.9663 333.89H82.5785C86.4615 333.89 85.0545 332.146 82.9283 331.263C81.0575 330.486 78.4281 330.023 76.6753 328.437C75.3586 327.243 74.6276 323.302 74.4154 321.28C74.27 319.874 69.1292 320.29 69.2943 321.884C69.5497 324.338 68.1781 329.889 68.41 332.127C68.5357 333.324 68.803 333.89 69.9663 333.89V333.89Z" fill="#003FE5"/>
<path d="M48.2357 214.092H80.2515C80.8017 231.413 80.4126 267.366 79.7484 277.369C79.1313 286.701 77.854 310.539 77.2606 323.584C73.7548 323.514 65.9729 323.569 62.589 323.569C62.4593 314.088 62.4553 287.635 62.1291 276.804C61.8029 266.027 51.5018 230.958 48.2397 214.092H48.2357Z" fill="#3369FA"/>
<path d="M48.2358 214.092H63.0607C63.6109 231.413 68.5591 267.366 67.8948 277.369C67.5293 282.893 66.0398 299.578 64.6092 307.398C63.6227 312.784 62.4947 311.622 62.479 309.216C62.4161 297.842 62.3414 283.933 62.1253 276.8C61.799 266.023 51.4979 230.954 48.2358 214.088V214.092Z" fill="#003FE5"/>
<path d="M14.4515 319.537C13.9367 321.064 14.2668 323.584 14.3297 325.602C14.3887 327.51 14.1686 328.782 14.5734 330.294C15.3123 333.03 20.9246 335.032 22.5164 333.152C23.719 331.734 20.17 325.371 22.033 322.026C22.4417 321.288 25.916 315.513 27.7357 313.09C30.031 310.032 24.2339 306.676 22.3434 309.624C20.5002 312.494 20.1307 314.245 18.5783 315.638C17.1948 316.879 15.4891 316.467 14.4555 319.537H14.4515Z" fill="#003FE5"/>
<path d="M30.5302 272.27C34.6137 261.992 34.8809 229.776 37.4749 214.092H70.0723C69.467 223.467 67.9657 235.743 67.1443 242.798H59.1619C55.947 258.549 49.7883 272.442 46.538 279.67C42.7021 288.201 33.5761 308.694 28.6476 320.789C25.7117 319.639 18.2285 316.369 15.3752 314.838C19.0814 305.828 26.6667 281.978 30.5262 272.266L30.5302 272.27Z" fill="#3369FA"/>
<path d="M35.3014 235.496C50.4407 236.78 73.4562 233.824 80.4795 227.283C80.4441 222.329 80.3694 217.791 80.2515 214.092H37.4748C36.5473 219.699 35.9185 227.417 35.3014 235.492V235.496Z" fill="#003FE5"/>
<path d="M46.5342 165.938C49.7334 164.736 52.3548 164.784 54.6461 164.784C58.6668 171.768 67.5806 172.466 67.3801 165.223C69.5889 165.223 71.2003 165.223 73.979 166.244C77.0249 167.363 80.7075 171.45 81.7412 176.432C84.1897 188.252 85.4474 212.836 84.7675 225.214C84.6181 227.935 82.7277 230.224 80.008 230.424C66.3268 231.441 44.5572 231.393 34.0635 229.179C34.4329 218.073 34.7356 190.18 40.0021 175.525C41.7589 170.641 43.2878 167.163 46.5381 165.942L46.5342 165.938Z" fill="#FFB752"/>
<path d="M113.065 164.532C116.508 157.426 122.289 146.874 123.354 143.957C124.345 141.244 122.01 138.59 120.057 137.723C118.143 136.871 115.443 135.991 114.185 137.966C111.218 142.614 107.567 148.546 104.045 154.199C102.057 157.387 100.064 159.338 96.845 160.736C92.5532 162.601 83.0696 163.598 78.9546 164.206C75.5196 164.713 70.0487 164.383 68.2644 166.165C66.48 167.948 67.6512 179.823 71.2553 185.249C75.382 191.464 83.27 194.801 83.2739 190.364C83.2779 186.199 83.0499 182.25 89.0475 179.556C95.0489 176.863 101.015 174.005 104.238 172.301C107.268 170.7 111.159 168.474 113.065 164.536V164.532Z" fill="#FFB752"/>
<path d="M34.2836 221.744C39.6523 221.85 40.9179 199.355 42.5529 191.676C44.404 182.929 44.6477 179.152 40.6938 179.152C40.0964 179.152 39.389 179.478 38.6265 180.071C35.4588 192.327 34.657 210.029 34.2836 221.744Z" fill="#DEA364"/>
<path d="M16.7623 202.829C14.7186 210.068 11.4565 226.396 10.9809 228.967C10.6626 230.702 14.1762 232.367 15.4182 232.618C16.8174 232.901 19.8004 232.324 20.4056 230.73C22.2096 225.98 25.1927 216.463 28.6552 207.308C30.0347 203.653 32.4833 201.054 34.2794 198.832C38.359 193.788 45.7793 185.912 48.6562 181.131C51.9183 175.705 52.2445 165.981 46.6007 166.067C38.8149 166.189 27.2089 184.001 22.3197 190.91C20.2602 193.819 17.5759 199.947 16.7623 202.833V202.829Z" fill="#FFB752"/>
<path d="M63.8151 163.378C63.8151 163.378 63.8387 163.378 63.8505 163.378C64.6601 163.378 65.3479 163.253 65.9531 163.001L65.5994 162.145C65.1042 162.35 64.5304 162.448 63.8465 162.452H63.8151C61.9679 162.452 60.2975 161.902 58.9848 160.858L58.411 161.584C59.8927 162.758 61.7635 163.378 63.819 163.378H63.8151Z" fill="#2D374D"/>
<path d="M36.2287 197.855C37.2388 196.657 38.3432 195.382 39.5144 194.031C41.3026 191.966 43.1538 189.83 44.8359 187.781L44.1206 187.196C42.4464 189.238 40.6031 191.369 38.8148 193.43C37.6436 194.785 36.5392 196.061 35.5213 197.262L36.2287 197.859V197.855Z" fill="#2D374D"/>
<defs>
<filter id="filter0_b_2530_55115" x="14.1714" y="-4" width="386.696" height="371" filterUnits="userSpaceOnUse" color-interpolation-filters="sRGB">
<feFlood flood-opacity="0" result="BackgroundImageFix"/>
<feGaussianBlur in="BackgroundImageFix" stdDeviation="2"/>
<feComposite in2="SourceAlpha" operator="in" result="effect1_backgroundBlur_2530_55115"/>
<feBlend mode="normal" in="SourceGraphic" in2="effect1_backgroundBlur_2530_55115" result="shape"/>
</filter>
</defs>
</svg>
